<svg width="16" height="20" viewBox="0 0 16 20" fill="none" xmlns="http://www.w3.org/2000/svg">
<path d="M5.49967 18.3334V15H10.4997V18.3334M4.66634 5.00002H4.67467M11.333 5.00002H11.3413M7.99967 5.00002H8.00801M7.99967 8.33335H8.00801M7.99967 11.6667H8.00801M11.333 8.33335H11.3413M11.333 11.6667H11.3413M4.66634 8.33335H4.67467M4.66634 11.6667H4.67467M2.99967 1.66669H12.9997C13.9201 1.66669 14.6663 2.41288 14.6663 3.33335V16.6667C14.6663 17.5872 13.9201 18.3334 12.9997 18.3334H2.99967C2.0792 18.3334 1.33301 17.5872 1.33301 16.6667V3.33335C1.33301 2.41288 2.0792 1.66669 2.99967 1.66669Z" stroke="#007FFF" stroke-width="1.5" stroke-linecap="round" stroke-linejoin="round"/>
</svg>
