<svg width="36" height="24" viewBox="0 0 36 24" fill="none" xmlns="http://www.w3.org/2000/svg">
<path d="M13.8337 17.5H22.167M5.50033 17.5H2.16699V1.49996C2.16699 1.49996 18.8947 1.49996 28.4337 1.49996C29.0549 1.49564 29.665 1.665 30.195 1.98894C30.7251 2.31288 31.1541 2.77851 31.4337 3.33329L32.767 6.04996C33.4668 7.44097 33.832 8.97618 33.8337 10.5333V17.5H30.5003M13.8337 18.3333C13.8337 20.6345 11.9682 22.5 9.667 22.5C7.36581 22.5 5.50033 20.6345 5.50033 18.3333C5.50033 16.0321 7.36581 14.1666 9.667 14.1666C11.9682 14.1666 13.8337 16.0321 13.8337 18.3333ZM30.5003 18.3333C30.5003 20.6345 28.6349 22.5 26.3337 22.5C24.0325 22.5 22.167 20.6345 22.167 18.3333C22.167 16.0321 24.0325 14.1666 26.3337 14.1666C28.6349 14.1666 30.5003 16.0321 30.5003 18.3333Z" stroke="white" stroke-width="3" stroke-linecap="round" stroke-linejoin="round"/>
</svg>
