<svg width="40" height="40" viewBox="0 0 40 40" fill="none" xmlns="http://www.w3.org/2000/svg">
<path d="M19.9967 20.5797V24.7464M19.9967 24.7464H7.33008V28.913M19.9967 24.7464H32.6634V28.913M19.9967 24.7464V28.913M19.9967 28.913H15.4967V37.913H24.4967V28.913H19.9967ZM27.9967 28.913H37.1634V37.913H27.9967V28.913ZM2.83008 28.913H11.8301V37.913H2.83008V28.913ZM20.201 2.07971H19.7976C19.3113 2.07971 18.845 2.27288 18.5011 2.61673C18.1573 2.96058 17.9641 3.42694 17.9641 3.91321V4.07823C17.9638 4.39975 17.8789 4.71554 17.718 4.99391C17.5571 5.27228 17.3258 5.50344 17.0474 5.6642L16.6532 5.89339C16.3744 6.05431 16.0582 6.13903 15.7364 6.13903C15.4146 6.13903 15.0984 6.05431 14.8197 5.89339L14.6821 5.82005C14.2614 5.57735 13.7616 5.51151 13.2923 5.63698C12.8231 5.76245 12.4229 6.06898 12.1794 6.48928L11.9777 6.83764C11.735 7.25837 11.6692 7.75821 11.7947 8.22744C11.9201 8.69666 12.2267 9.09693 12.647 9.34037L12.7845 9.43205C13.0616 9.59203 13.292 9.82175 13.4528 10.0984C13.6137 10.375 13.6993 10.6889 13.7012 11.0089V11.4764C13.7025 11.7995 13.6184 12.1172 13.4574 12.3973C13.2964 12.6774 13.0643 12.91 12.7845 13.0715L12.647 13.1541C12.2267 13.3975 11.9201 13.7978 11.7947 14.267C11.6692 14.7362 11.735 15.236 11.9777 15.6568L12.1794 16.0051C12.4229 16.4254 12.8231 16.732 13.2923 16.8574C13.7616 16.9829 14.2614 16.9171 14.6821 16.6744L14.8197 16.601C15.0984 16.4401 15.4146 16.3554 15.7364 16.3554C16.0582 16.3554 16.3744 16.4401 16.6532 16.601L17.0474 16.8302C17.3258 16.991 17.5571 17.2221 17.718 17.5005C17.8789 17.7789 17.9638 18.0947 17.9641 18.4162V18.5812C17.9641 19.0675 18.1573 19.5338 18.5011 19.8777C18.845 20.2215 19.3113 20.4147 19.7976 20.4147H20.201C20.6872 20.4147 21.1536 20.2215 21.4975 19.8777C21.8413 19.5338 22.0345 19.0675 22.0345 18.5812V18.4162C22.0348 18.0947 22.1197 17.7789 22.2806 17.5005C22.4415 17.2221 22.6728 16.991 22.9512 16.8302L23.3454 16.601C23.6242 16.4401 23.9403 16.3554 24.2622 16.3554C24.584 16.3554 24.9002 16.4401 25.1789 16.601L25.3164 16.6744C25.7372 16.9171 26.237 16.9829 26.7062 16.8574C27.1755 16.732 27.5757 16.4254 27.8192 16.0051L28.0209 15.6476C28.2635 15.2269 28.3294 14.727 28.2039 14.2578C28.0784 13.7886 27.7719 13.3883 27.3516 13.1449L27.2141 13.0715C26.9343 12.91 26.7022 12.6774 26.5412 12.3973C26.3802 12.1172 26.2961 11.7995 26.2974 11.4764V11.018C26.2961 10.6949 26.3802 10.3773 26.5412 10.0971C26.7022 9.81702 26.9343 9.58442 27.2141 9.42288L27.3516 9.34037C27.7719 9.09693 28.0784 8.69666 28.2039 8.22744C28.3294 7.75821 28.2635 7.25837 28.0209 6.83764L27.8192 6.48928C27.5757 6.06898 27.1755 5.76245 26.7062 5.63698C26.237 5.51151 25.7372 5.57735 25.3164 5.82005L25.1789 5.89339C24.9002 6.05431 24.584 6.13903 24.2622 6.13903C23.9403 6.13903 23.6242 6.05431 23.3454 5.89339L22.9512 5.6642C22.6728 5.50344 22.4415 5.27228 22.2806 4.99391C22.1197 4.71554 22.0348 4.39975 22.0345 4.07823V3.91321C22.0345 3.42694 21.8413 2.96058 21.4975 2.61673C21.1536 2.27288 20.6872 2.07971 20.201 2.07971ZM22.7495 11.2472C22.7495 12.7661 21.5182 13.9975 19.9993 13.9975C18.4804 13.9975 17.249 12.7661 17.249 11.2472C17.249 9.72829 18.4804 8.49696 19.9993 8.49696C21.5182 8.49696 22.7495 9.72829 22.7495 11.2472Z" stroke="white" stroke-width="3" stroke-linecap="round" stroke-linejoin="round"/>
</svg>
