<svg width="40" height="40" viewBox="0 0 40 40" fill="none" xmlns="http://www.w3.org/2000/svg">
<path d="M32.5003 16.5668C34.0516 17.4607 35.3763 18.6996 36.3719 20.1875C37.3675 21.6755 38.0073 23.3727 38.2418 25.1477C38.4762 26.9226 38.299 28.7277 37.7239 30.4232C37.1487 32.1186 36.1911 33.659 34.9251 34.925C33.6592 36.1909 32.1188 37.1486 30.4233 37.7237C28.7279 38.2988 26.9228 38.476 25.1478 38.2416C23.3729 38.0071 21.6757 37.3673 20.1877 36.3717C18.6997 35.3761 17.4608 34.0514 16.567 32.5001M11.667 10.0002H13.3337V16.6669M28.8337 23.8336L30.0003 25.0003L25.3337 29.6669M25.0003 13.3335C25.0003 19.7769 19.777 25.0002 13.3337 25.0002C6.89034 25.0002 1.66699 19.7769 1.66699 13.3335C1.66699 6.89022 6.89034 1.66687 13.3337 1.66687C19.777 1.66687 25.0003 6.89022 25.0003 13.3335Z" stroke="white" stroke-width="3" stroke-linejoin="round"/>
</svg>
