<svg width="40" height="40" viewBox="0 0 40 40" fill="none" xmlns="http://www.w3.org/2000/svg">
<path d="M11.667 33.3338H28.3337M16.667 33.3338C25.8337 29.1671 18.0003 22.6671 21.667 16.6671M21.667 16.6671C21.5904 14.3107 22.2296 11.9864 23.5003 10.0004C25.0003 8.33378 27.167 6.83378 31.667 6.66711C31.5003 10.5004 30.5003 12.6671 28.8337 14.3338C27.167 15.6671 24.8337 16.5004 21.667 16.6671ZM15.8337 15.6671C17.667 17.0004 18.8337 19.3338 19.667 21.8338C16.3337 22.5004 13.8337 22.5004 11.667 21.3338C9.66699 20.3338 7.83366 18.1671 6.66699 14.3338C11.3337 13.5004 14.0003 14.3338 15.8337 15.6671Z" stroke="white" stroke-width="3" stroke-linejoin="round"/>
</svg>
