<svg width="240" height="60" viewBox="0 0 240 60" fill="none" xmlns="http://www.w3.org/2000/svg">
<path d="M66.6094 25.2314C67.9855 25.2314 69.5174 25.2792 70.8458 26.1768C71.7314 26.7632 72.7726 27.9241 72.7726 29.9945C72.7726 32.2684 71.3365 34.949 67.3513 34.949H64.0003V41.1842H61.0684V25.2314H66.6094ZM66.729 32.6154C67.3752 32.6154 68.3087 32.6393 69.0506 31.9452C69.5653 31.4785 69.8406 30.6886 69.8406 30.0185C69.8406 29.3962 69.5892 28.6422 69.0746 28.1994C68.56 27.7566 67.7462 27.5411 66.8366 27.5411H64.0003V32.6154H66.729ZM75.4774 30.533C76.2912 29.7671 77.5 29.0969 79.307 29.0969C81.1261 29.0969 82.3349 29.7671 83.1486 30.533C84.3574 31.6699 84.9797 33.4411 84.9797 35.2483C84.9797 37.0554 84.3574 38.8266 83.1486 39.9635C82.3349 40.7294 81.1261 41.4115 79.307 41.4115C77.5 41.4115 76.2912 40.7294 75.4774 39.9635C74.2687 38.8266 73.6464 37.0554 73.6464 35.2483C73.6344 33.4292 74.2687 31.6699 75.4774 30.533ZM77.4521 38.5992C77.7034 38.8984 78.2898 39.4608 79.307 39.4608C80.3363 39.4608 80.9107 38.9104 81.162 38.5992C81.3535 38.3958 82.0476 37.4623 82.0476 35.2483C82.0476 33.0343 81.3535 32.1127 81.162 31.8973C80.9107 31.5982 80.3243 31.0357 79.307 31.0357C78.2898 31.0357 77.7034 31.5862 77.4521 31.8973C77.2726 32.1127 76.5665 33.0343 76.5665 35.2483C76.5665 37.4503 77.2726 38.3838 77.4521 38.5992ZM94.2545 33.6685C94.2066 33.0702 93.9792 32.3641 93.668 31.9213C93.3808 31.5024 92.8303 31.0357 91.8968 31.0357C90.9872 31.0357 90.3889 31.5024 90.0179 32.1247C89.4314 33.0821 89.3956 34.5661 89.3956 35.2483C89.3956 36.3373 89.5512 37.6418 90.0179 38.3838C90.317 38.8505 90.9275 39.4489 91.8968 39.4489C92.5909 39.4489 93.1774 39.1736 93.6202 38.5633C93.9672 38.0726 94.2066 37.3784 94.2425 36.7681L96.7078 37.0674C96.5641 38.1564 96.0854 39.377 95.2238 40.155C94.5058 40.8012 93.3808 41.3876 91.8011 41.3876C90.0419 41.3876 88.893 40.6936 88.2228 40.0592C87.3132 39.1975 86.4516 37.6657 86.4516 35.2483C86.4516 32.9983 87.2174 31.646 87.8279 30.928C88.6895 29.8987 90.1495 29.073 91.8728 29.073C93.3449 29.073 94.5536 29.5876 95.3076 30.3775C96.0734 31.1434 96.5402 32.3042 96.7078 33.3455L94.2545 33.6685ZM105.791 33.6685C105.743 33.0702 105.516 32.3641 105.205 31.9213C104.93 31.5024 104.367 31.0357 103.434 31.0357C102.524 31.0357 101.926 31.5024 101.555 32.1247C100.98 33.0821 100.932 34.5661 100.932 35.2483C100.932 36.3373 101.1 37.6418 101.555 38.3838C101.854 38.8505 102.464 39.4489 103.434 39.4489C104.128 39.4489 104.714 39.1736 105.157 38.5633C105.504 38.0726 105.743 37.3784 105.779 36.7681L108.245 37.0674C108.113 38.1564 107.622 39.377 106.761 40.155C106.043 40.8012 104.93 41.3876 103.35 41.3876C101.579 41.3876 100.442 40.6936 99.7716 40.0592C98.8621 39.1975 98.0004 37.6657 98.0004 35.2483C98.0004 32.9983 98.7664 31.646 99.3767 30.928C100.238 29.8987 101.698 29.073 103.422 29.073C104.882 29.073 106.09 29.5876 106.856 30.3775C107.622 31.1434 108.089 32.3042 108.257 33.3455L105.791 33.6685ZM120.691 37.7375C120.272 39.1258 119.434 39.9396 118.74 40.4303C117.807 41.0525 116.598 41.4115 115.317 41.4115C113.714 41.4115 112.086 40.7294 111.105 39.7361C110.195 38.8146 109.525 37.1989 109.525 35.2961C109.525 32.8787 110.53 31.275 111.62 30.3655C112.254 29.827 113.439 29.085 115.222 29.085C117.484 29.085 118.92 30.1261 119.686 31.2032C120.499 32.3162 120.882 33.872 120.882 35.2243V35.7629H112.469C112.469 35.8945 112.445 36.9716 112.864 37.8332C113.487 39.1378 114.635 39.4608 115.425 39.4608C116.048 39.4608 116.837 39.2694 117.496 38.5992C117.891 38.1803 118.058 37.7854 118.118 37.4144L120.691 37.7375ZM117.95 33.9917C117.95 33.3215 117.783 32.5555 117.436 32.041C116.993 31.3946 116.203 30.9518 115.341 30.9518C114.456 30.9518 113.69 31.3946 113.223 31.9452C112.852 32.412 112.529 33.13 112.529 33.9917H117.95ZM132.359 29.3243V41.1842H129.655V31.3349H126.59C126.52 32.9386 126.472 33.5848 126.424 34.6858C126.352 35.9184 126.268 38.5154 125.215 39.9396C124.628 40.7054 123.91 41.0047 123.396 41.1482C123.096 41.244 122.773 41.2799 122.438 41.2799C122.21 41.2799 121.972 41.256 121.744 41.1842V39.1378H121.972C122.318 39.1138 122.785 38.9342 123.084 38.695C124.018 37.9529 124.102 36.2774 124.198 34.949C124.318 33.2018 124.342 32.1606 124.352 30.5809L124.376 29.3243H132.359ZM137.9 33.5489H140.88C141.646 33.5489 143.13 33.6446 144.112 34.614C144.997 35.4756 145.081 36.6844 145.081 37.3307C145.081 39.03 144.386 39.8917 143.848 40.3345C143.657 40.4782 142.783 41.1722 141.108 41.1722H135.208V29.3243H137.9V33.5489ZM137.9 39.2215H140.018C140.533 39.2215 141.084 39.1975 141.551 38.8026C141.826 38.5393 142.16 38.1085 142.16 37.3546C142.16 36.7084 141.97 36.1937 141.443 35.8466C140.976 35.5475 140.389 35.4996 140.03 35.4996H137.912V39.2215H137.9ZM149.006 29.3243L151.196 33.0103L153.47 29.3243H155.935L152.465 34.6858L156.582 41.1722H153.422L150.73 36.7084L147.893 41.1722H145.428L149.473 35.0209L145.847 29.3243H149.006ZM158.664 30.533C159.478 29.7671 160.687 29.0969 162.493 29.0969C164.312 29.0969 165.522 29.7671 166.336 30.533C167.544 31.6699 168.167 33.4411 168.167 35.2483C168.167 37.0554 167.532 38.8266 166.336 39.9635C165.522 40.7294 164.312 41.4115 162.493 41.4115C160.687 41.4115 159.478 40.7294 158.664 39.9635C157.456 38.8266 156.833 37.0554 156.833 35.2483C156.833 33.4292 157.456 31.6699 158.664 30.533ZM160.639 38.5992C160.89 38.8984 161.477 39.4608 162.493 39.4608C163.523 39.4608 164.098 38.9104 164.36 38.5992C164.54 38.3958 165.246 37.4623 165.246 35.2483C165.246 33.0343 164.552 32.1127 164.36 31.8973C164.11 31.5982 163.523 31.0357 162.493 31.0357C161.477 31.0357 160.89 31.5862 160.639 31.8973C160.447 32.1127 159.754 33.0343 159.754 35.2483C159.754 37.4503 160.459 38.3838 160.639 38.5992ZM169.614 32.5316C169.962 31.0955 170.87 30.3056 171.517 29.9107C171.912 29.6594 173.002 29.0969 174.868 29.0969C176.029 29.0969 177.214 29.3004 178.099 29.7911C179.404 30.5092 179.726 31.5503 179.726 32.3042C179.726 33.1181 179.332 34.6739 177.31 34.9012V34.949C178.003 35.0448 178.77 35.344 179.237 35.8346C179.656 36.2774 179.978 37.0195 179.978 37.8094C179.978 38.9941 179.284 40.0354 178.398 40.6217C177.334 41.3159 175.861 41.4115 174.773 41.4115C173.671 41.4115 172.008 41.2919 170.836 40.3704C170.189 39.8558 169.578 38.9702 169.399 37.8572L171.84 37.4383C171.936 37.8094 172.14 38.3718 172.415 38.695C173.026 39.401 173.97 39.4608 174.581 39.4608C175.192 39.4608 175.837 39.389 176.352 39.042C176.819 38.7188 177.047 38.276 177.047 37.6896C177.047 37.199 176.951 36.804 176.532 36.457C175.993 36.0142 175.276 35.9424 174.605 35.9424H173.372V34.1233H174.605C175.072 34.1233 175.741 34.0276 176.113 33.848C176.604 33.5968 176.879 33.1778 176.879 32.4958C176.879 32.1247 176.735 31.7657 176.388 31.4904C175.849 31.0476 175.084 31.0237 174.689 31.0237C174.15 31.0237 173.36 31.0955 172.714 31.646C172.439 31.8734 172.068 32.3162 171.948 33.0103L169.614 32.5316ZM193.777 28.0199H186.082V31.5503H189.504C190.738 31.5503 191.922 31.646 193.13 32.4838C194.316 33.2976 195.058 34.5062 195.058 36.2536C195.058 37.8811 194.447 39.0899 193.681 39.8557C192.521 41.0166 191.192 41.1842 189.804 41.1842H182.36V25.2314H193.777V28.0199ZM186.082 38.3838H189.085C189.648 38.3838 190.163 38.3598 190.69 37.8212C191.204 37.3067 191.275 36.7322 191.275 36.2894C191.275 35.7868 191.132 35.2722 190.69 34.8294C190.163 34.3028 189.48 34.243 188.99 34.243H186.082V38.3838ZM196.973 32.6154C197.344 31.0117 198.384 30.1979 199.019 29.827C199.94 29.2884 201.173 29.085 202.717 29.085C204.667 29.085 206.642 29.3363 207.528 31.1792C207.995 32.1367 207.947 33.154 207.947 34.0396V38.6231C207.947 39.5806 208.078 40.4662 208.294 41.1842H204.919C204.823 40.7174 204.751 40.0951 204.739 39.3053C204.296 40.0951 203.219 41.4235 200.766 41.4235C199.676 41.4235 198.552 41.1482 197.786 40.514C197.044 39.9036 196.577 38.9342 196.577 37.8691C196.577 36.6844 197.092 35.2602 199.115 34.4225C200.419 33.8839 202.537 33.7044 203.483 33.6565L204.595 33.6088V33.3574C204.595 33.0342 204.571 32.3401 204.248 31.9572C203.806 31.4425 202.92 31.4186 202.573 31.4186C202.094 31.4186 201.508 31.4665 201.017 31.7657C200.718 31.9452 200.323 32.3281 200.179 32.9744L196.973 32.6154ZM203.555 35.5714C202.393 35.6671 201.233 35.7868 200.574 36.5886C200.395 36.816 200.203 37.175 200.203 37.6537C200.203 38.1684 200.455 38.5154 200.718 38.695C201.041 38.9462 201.532 39.0659 201.998 39.0659C202.693 39.0659 203.507 38.7667 203.974 38.2043C204.046 38.1324 204.595 37.4383 204.595 36.086V35.4637L203.555 35.5714ZM214.098 29.3243V33.7643H217.843V29.3243H221.303V41.1722H217.843V36.1937H214.098V41.1722H210.64V29.3243H214.098ZM227.466 29.3243V33.8839H228.4C229.404 33.8839 229.823 33.3932 230.075 32.8548C230.566 31.8136 230.542 30.9997 230.984 30.186C231.331 29.5397 231.798 29.3722 232.097 29.3243H234.958C234.587 29.7192 234.263 30.186 234.048 30.6048C233.677 31.3708 233.33 32.6274 233.114 33.166C232.84 33.9079 232.373 34.6499 231.187 34.7456V34.7935C231.822 34.8893 232.469 35.2123 232.958 35.9304C233.258 36.3732 233.461 36.9476 233.797 37.8572C234.12 38.7907 234.263 39.1138 234.563 39.8318C234.802 40.3704 234.934 40.6936 235.328 41.1842H232.073C231.559 41.0166 231.211 40.6696 230.792 39.4608C230.47 38.5393 230.422 38.2043 230.207 37.6896L230.039 37.2708C229.692 36.3852 229.225 36.2057 228.506 36.2057H227.466V41.1842H224.008V29.3243H227.466Z" fill="#19502E"/>
<path d="M29.1864 58.8002C15.0765 58.8002 3.59961 47.3353 3.59961 33.2254C3.59961 25.1234 7.32153 17.6676 13.808 12.7849L14.0713 12.5694V1.2002H28.7554V7.65072H29.1864C43.2841 7.65072 54.761 19.1276 54.761 33.2374C54.761 47.3353 43.2841 58.8002 29.1864 58.8002Z" fill="#19502E"/>
<path d="M21.7791 33.6322L27.1047 28.4023V24.8479L21.7791 30.0539V33.6322ZM21.7791 20.3841L27.1047 15.1422V11.7913L21.7791 16.9972V20.3841ZM21.7791 24.7642L27.1047 19.5343V16.1835L21.7791 21.3893V24.7642ZM20.2593 11.8273L19.5532 11.1451V2.85156H18.7395V10.3552L18.0453 9.66112V2.85156H17.2316V8.88323L16.5255 8.1891V2.85156H15.7236V10.7621L21.0611 15.9919V2.85156H20.2593V11.8273ZM21.7791 29.1443L27.1047 23.9145V20.5636L21.7791 25.7694V29.1443ZM15.7236 28.4023L21.0611 33.6322V30.0539L15.7236 24.8479V28.4023ZM26.3028 8.1891L25.5968 8.88323V2.85156H24.7949V9.6731L24.0888 10.3552V2.85156H23.287V11.1331L22.5809 11.8273V2.85156H21.7791V15.9919L27.1047 10.7621V2.85156H26.3028V8.1891ZM15.7236 15.1422L21.0611 20.3841V16.9972L15.7236 11.7913V15.1422ZM15.7236 19.5343L21.0611 24.7642V21.3893L15.7236 16.1835V19.5343ZM15.7236 23.9145L21.0611 29.1443V25.7694L15.7236 20.5636V23.9145ZM47.4736 26.679H34.5128C34.788 26.2482 34.9436 25.7456 34.9436 25.207C34.9436 23.6632 33.6869 22.4186 32.1431 22.4186C30.5993 22.4186 29.3547 23.6752 29.3547 25.207C29.3547 25.8174 29.5462 26.3679 29.8812 26.8227C29.642 26.9782 29.4743 27.2535 29.4743 27.5766C29.4743 27.8878 29.642 28.1631 29.8812 28.3186C29.5582 28.7734 29.3547 29.3358 29.3547 29.9343C29.3547 31.4781 30.5993 32.7227 32.1431 32.7227C33.6869 32.7227 34.9436 31.4781 34.9436 29.9343C34.9436 29.3957 34.788 28.881 34.5128 28.4622H44.1586V29.0487H43.2012V29.8744H44.1586V30.7241H43.2012V32.2918H44.1586V31.5857H45.5708V32.2918H46.5162V30.7241H45.5708V29.8744H46.5162V29.0487H45.5708V28.4622H47.4736C47.8446 28.4622 48.1438 28.1511 48.1438 27.78V27.3612C48.1438 26.9902 47.8326 26.679 47.4736 26.679ZM33.5913 29.9343C33.5913 30.7241 32.945 31.3703 32.1431 31.3703C31.3533 31.3703 30.7071 30.7241 30.7071 29.9343C30.7071 29.647 30.7908 29.3717 30.9464 29.1443L31.3413 28.4622C31.09 28.2468 30.9344 27.9237 30.9344 27.5646C30.9344 27.2056 31.09 26.8825 31.3413 26.667L30.9464 25.985C30.7908 25.7576 30.7071 25.4943 30.7071 25.1951C30.7071 24.4051 31.3533 23.759 32.1431 23.759C32.933 23.759 33.5913 24.4051 33.5913 25.1951C33.5913 25.7814 32.9091 27.1817 32.9091 27.1817V27.9357C32.9091 27.9477 33.5913 29.3478 33.5913 29.9343Z" fill="#FFCB05"/>
<path d="M10.876 24.9795V28.4621C10.876 31.7891 12.324 33.9313 13.1618 34.7571C13.6524 35.2358 18.607 40.1186 18.6789 40.1783C20.2227 41.6863 20.486 42.1769 20.833 43.0387V39.1851C20.833 35.7503 19.0977 34.4219 18.2001 33.5483C16.1058 31.5139 14.7176 30.1735 13.5807 29.0485C11.4504 26.9063 10.876 24.9795 10.876 24.9795ZM18.2002 42.1531C16.1178 40.1066 14.7176 38.7782 13.5927 37.6532C11.4505 35.5111 10.888 34.0629 10.888 34.0629V37.0667C10.888 40.3937 12.3959 42.5121 13.1619 43.3857C13.6524 43.8644 18.619 48.7232 18.6789 48.7831C20.2227 50.291 20.486 51.009 20.833 51.8588V47.7897C20.833 44.355 19.0858 43.0267 18.2002 42.1531Z" fill="white"/>
<path d="M29.1871 9.29004C28.8042 9.29004 28.4212 9.302 28.0382 9.31398V10.9416C28.4212 10.9176 28.7922 10.9176 29.1871 10.9176C41.5018 10.9176 51.4828 20.8986 51.4828 33.2252C51.4828 45.5398 41.5018 55.5208 29.1871 55.5208C16.8725 55.5208 6.87955 45.5398 6.87955 33.2252C6.87955 26.3917 9.95522 20.2762 14.8021 16.1834V14.101C8.99781 18.4692 5.25195 25.4103 5.25195 33.2252C5.25195 46.4374 15.9629 57.1484 29.1871 57.1484C42.3994 57.1484 53.1103 46.4374 53.1103 33.2252C53.1103 20.013 42.3994 9.29004 29.1871 9.29004Z" fill="white"/>
<path d="M46.1094 45.7192C46.4803 45.2165 46.8275 44.6899 47.1625 44.1514V40.9441H46.1094V45.7192ZM49.1731 39.7712C49.3286 39.3046 49.4603 38.8379 49.5799 38.3711H46.1094V39.2208H46.6359C47.5574 39.1968 48.5987 39.1849 49.1731 39.7712Z" fill="white"/>
<path d="M26.0636 38.252H25.1182V47.79H26.0636V38.252Z" fill="white"/>
<path d="M22.9513 36.42H26.0628C26.8647 36.42 27.4272 36.5875 27.7503 36.8986C28.0734 37.2098 28.2291 37.7724 28.2291 38.5742V47.49C28.2291 48.2918 28.0734 48.8544 27.7503 49.1655C27.2596 49.6561 26.3501 49.6561 25.5961 49.6561C25.4286 49.6442 25.2611 49.6442 25.1175 49.6442V53.8687C25.4286 53.9286 25.7398 53.9884 26.0628 54.0363V50.5657C27.499 50.5657 28.4325 50.075 28.8753 49.0936V54.2636H29.1864C29.3779 54.2636 29.5813 54.2636 29.7729 54.2517V38.7297C29.7729 37.904 29.9404 37.3296 30.2515 37.0064C30.5627 36.6832 31.1251 36.5157 31.915 36.5157C32.7168 36.5157 33.9017 36.3961 34.512 37.0064C34.8232 37.3296 34.9667 37.9159 34.9667 38.7297V43.3014H32.8366V38.4186H31.915V54.0842C32.2261 54.0482 32.5254 54.0003 32.8366 53.9406V44.2228H34.9667V53.4499C35.4095 53.3302 35.8404 53.1866 36.2712 53.031V44.5819C36.2712 43.6245 36.4986 42.9064 37.468 42.5833L36.3909 36.7072H38.5451L38.9041 43.1218H39.1674L39.5265 36.7072H41.8002L40.5796 42.5833C41.5968 42.9423 41.8002 43.5646 41.8002 44.5819V50.0391C42.4345 49.5604 43.0329 49.0578 43.6073 48.5072V36.6474H49.9263C49.9741 36.3602 50.01 36.0849 50.0459 35.7858H35.2779L35.4814 36.8508C35.0146 35.9892 34.129 35.5584 32.8246 35.5584H31.9031C30.3353 35.5584 29.3898 36.1807 29.0189 37.4253C28.6837 36.1208 27.6905 35.4746 26.0509 35.4746H22.0059V52.9831C22.317 53.0908 22.6282 53.1985 22.9393 53.2942V36.42H22.9513ZM42.5662 43.1577L41.5489 42.1884L42.5662 36.9226V43.1577Z" fill="white"/>
<path d="M38.5576 52.0621C38.8808 51.8945 39.2038 51.727 39.527 51.5475V44.3311H38.5576V52.0621Z" fill="white"/>
</svg>
