<svg width="240" height="60" viewBox="0 0 240 60" fill="none" xmlns="http://www.w3.org/2000/svg">
<path d="M108.6 23.4007L113.16 20.0407H98.0396V39.9607H113.16V36.6007H102.36V31.5607H111.48V28.2007H102.36V23.4007H108.6ZM89.7596 23.4007L94.3196 20.0407H77.0396V39.9607H86.0396C91.0796 39.9607 93.9596 37.6807 93.9596 33.7207C93.9596 29.8807 91.3196 27.8407 86.5196 27.8407H81.2396V23.4007H89.7596V23.4007ZM85.9196 31.0807C88.6796 31.0807 89.8796 32.0407 89.8796 33.8407C89.8796 35.6407 88.5596 36.6007 85.9196 36.6007H81.3596V31.0807H85.9196ZM125.28 20.0407H117.12V39.9607H121.44V34.3207H125.4C130.68 34.3207 133.92 31.5607 133.92 27.1207C133.92 22.6807 130.56 20.0407 125.28 20.0407V20.0407ZM125.28 30.9607H121.44V23.2807H125.28C128.04 23.2807 129.6 24.6007 129.6 27.1207C129.48 29.6407 128.04 30.9607 125.28 30.9607ZM69.7196 35.6407C68.5196 36.2407 67.3196 36.6007 65.9996 36.6007C62.1596 36.6007 59.2796 33.8407 59.2796 30.0007C59.2796 26.1607 62.0396 23.4007 65.9996 23.4007C67.4396 23.4007 68.7596 23.8807 69.9596 24.6007L73.0796 22.3207L72.8396 22.0807C71.0396 20.5207 68.6396 19.6807 65.8796 19.6807C62.8796 19.6807 60.2396 20.6407 58.1996 22.5607C56.2796 24.4807 55.0796 27.1207 55.1996 29.8807C55.1996 32.6407 56.2796 35.2807 58.1996 37.3207C60.2396 39.2407 62.9996 40.3207 65.7596 40.2007C68.8796 40.2007 71.5196 39.1207 73.4396 37.2007L70.6796 35.1607L69.7196 35.6407ZM199.2 28.2007H189.96V20.0407H185.64V39.9607H189.96V31.8007H199.2V39.9607H203.52V20.0407H199.2V28.2007ZM170.04 20.0407L161.4 39.9607H165.72L167.4 36.0007H176.52L178.2 39.9607H182.76L174.36 20.0407H170.04V20.0407ZM168.84 32.6407L172.2 24.6007L175.32 32.6407H168.84ZM219.12 29.6407L226.92 20.0407H222L215.52 28.5607H213.12V20.0407H208.8V39.9607H213.12V31.9207H215.88L222.48 39.9607H228L219.12 29.6407ZM152.4 27.8407H147.12V23.4007H158.4V20.0407H142.8V39.9607H151.8C156.84 39.9607 159.72 37.6807 159.72 33.7207C159.84 29.8807 157.2 27.8407 152.4 27.8407V27.8407ZM151.68 36.7207H147.12V31.2007H151.68C154.44 31.2007 155.64 32.1607 155.64 33.9607C155.76 35.7607 154.32 36.7207 151.68 36.7207V36.7207Z" fill="#21A038"/>
<path d="M41.3769 19.6572C42.156 20.678 42.8155 21.7869 43.3421 22.9619L28.4034 34.1222L22.1602 30.1559V25.3842L28.4034 29.3505L41.3769 19.6572Z" fill="#21A038"/>
<path d="M15.7888 29.8194C15.7888 29.6052 15.7939 29.3925 15.8042 29.1811L12.0206 28.9932C12.0077 29.2672 12 29.544 12 29.8232C11.9984 32.0052 12.4219 34.166 13.2462 36.1817C14.0705 38.1975 15.2794 40.0284 16.8036 41.5695L19.4874 38.8509C18.3141 37.6667 17.3834 36.2592 16.7487 34.7092C16.1139 33.1593 15.7877 31.4974 15.7888 29.8194Z" fill="url(#paint0_linear_553_4714)"/>
<path d="M28.4005 17.0393C28.6117 17.0393 28.8216 17.0471 29.0302 17.0576L29.2195 13.2217C28.9483 13.2087 28.6752 13.2022 28.4005 13.2022C26.2464 13.1995 24.1132 13.6281 22.1231 14.4633C20.133 15.2985 18.3252 16.5239 16.8037 18.0691L19.4875 20.789C20.6561 19.5996 22.0451 18.656 23.5747 18.0125C25.1043 17.369 26.7443 17.0382 28.4005 17.0393Z" fill="url(#paint1_linear_553_4714)"/>
<path d="M28.4004 42.6009C28.1892 42.6009 27.9793 42.6009 27.7694 42.5839L27.5801 46.4184C27.8522 46.4323 28.1257 46.4393 28.4004 46.4393C30.5535 46.4416 32.6858 46.0127 34.6748 45.1773C36.6639 44.3419 38.4704 43.1163 39.9908 41.5711L37.3121 38.8525C36.1434 40.0413 34.7545 40.9844 33.2252 41.6276C31.6959 42.2709 30.0562 42.6017 28.4004 42.6009Z" fill="url(#paint2_linear_553_4714)"/>
<path d="M35.5095 19.2691L38.6981 16.8873C35.7837 14.4955 32.1457 13.1936 28.3955 13.2002V17.0387C30.9349 17.0355 33.4154 17.8132 35.5095 19.2691Z" fill="url(#paint3_linear_553_4714)"/>
<path d="M44.7994 29.8201C44.8014 28.8216 44.7153 27.8248 44.5418 26.8418L41.0119 29.4782C41.0119 29.5918 41.0119 29.7053 41.0119 29.8201C41.0129 31.6059 40.6435 33.372 39.9278 35.0039C39.2121 36.6357 38.166 38.097 36.8574 39.2929L39.4035 42.1447C41.1047 40.5881 42.4642 38.6867 43.3938 36.5636C44.3234 34.4404 44.8023 32.1429 44.7994 29.8201Z" fill="#21A038"/>
<path d="M28.4001 42.602C26.6379 42.6026 24.8952 42.2281 23.2847 41.5029C21.6744 40.7776 20.2323 39.7176 19.0518 38.3916L16.2393 40.9706C17.7749 42.695 19.6511 44.073 21.7461 45.0153C23.841 45.9576 26.108 46.4431 28.4001 46.4404V42.602Z" fill="url(#paint4_linear_553_4714)"/>
<path d="M19.9433 20.3469L17.3985 17.4951C15.6968 19.0513 14.3368 20.9527 13.4068 23.0759C12.4767 25.199 11.9975 27.4966 12 29.8196H15.7888C15.788 28.0339 16.1574 26.2678 16.8731 24.6359C17.5888 23.0041 18.6347 21.5429 19.9433 20.3469Z" fill="url(#paint5_linear_553_4714)"/>
<defs>
<linearGradient id="paint0_linear_553_4714" x1="17.5698" y1="41.0906" x2="13.3309" y2="28.9995" gradientUnits="userSpaceOnUse">
<stop offset="0.14" stop-color="#F1E813"/>
<stop offset="0.3" stop-color="#E6E418"/>
<stop offset="0.58" stop-color="#C9DA26"/>
<stop offset="0.89" stop-color="#A2CC39"/>
</linearGradient>
<linearGradient id="paint1_linear_553_4714" x1="17.8855" y1="18.7477" x2="28.583" y2="14.7252" gradientUnits="userSpaceOnUse">
<stop offset="0.06" stop-color="#0FA7DF"/>
<stop offset="0.54" stop-color="#0098F8"/>
<stop offset="0.92" stop-color="#0290EA"/>
</linearGradient>
<linearGradient id="paint2_linear_553_4714" x1="27.3303" y1="44.1227" x2="39.4022" y2="41.4317" gradientUnits="userSpaceOnUse">
<stop offset="0.12" stop-color="#A2CC39"/>
<stop offset="0.28" stop-color="#86C239"/>
<stop offset="0.87" stop-color="#219F38"/>
</linearGradient>
<linearGradient id="paint3_linear_553_4714" x1="27.6074" y1="14.4858" x2="37.9388" y2="17.6317" gradientUnits="userSpaceOnUse">
<stop offset="0.06" stop-color="#0290EA"/>
<stop offset="0.79" stop-color="#0C89CA"/>
</linearGradient>
<linearGradient id="paint4_linear_553_4714" x1="17.1897" y1="40.5033" x2="28.4455" y2="44.6542" gradientUnits="userSpaceOnUse">
<stop offset="0.13" stop-color="#F1E813"/>
<stop offset="0.3" stop-color="#EAE616"/>
<stop offset="0.53" stop-color="#D8DF1F"/>
<stop offset="0.8" stop-color="#BAD52D"/>
<stop offset="0.98" stop-color="#A2CC39"/>
</linearGradient>
<linearGradient id="paint5_linear_553_4714" x1="13.4115" y1="30.2842" x2="18.0209" y2="18.4526" gradientUnits="userSpaceOnUse">
<stop offset="0.07" stop-color="#A2CC39"/>
<stop offset="0.26" stop-color="#81C45E"/>
<stop offset="0.92" stop-color="#0FA7DF"/>
</linearGradient>
</defs>
</svg>
