<svg width="20" height="20" viewBox="0 0 20 20" fill="none" xmlns="http://www.w3.org/2000/svg">
<path d="M16.9835 2.88341L13.3335 1.66675C13.3335 2.5508 12.9823 3.39865 12.3572 4.02377C11.7321 4.64889 10.8842 5.00008 10.0002 5.00008C9.1161 5.00008 8.26825 4.64889 7.64313 4.02377C7.01801 3.39865 6.66682 2.5508 6.66682 1.66675L3.01682 2.88341C2.63964 3.00908 2.3198 3.26543 2.11503 3.6062C1.91027 3.94697 1.83405 4.34972 1.90016 4.74175L2.38349 7.63341C2.41522 7.82918 2.51572 8.0072 2.66694 8.13551C2.81816 8.26381 3.01017 8.33399 3.20849 8.33342H5.00016V16.6667C5.00016 17.5834 5.75016 18.3334 6.66682 18.3334H13.3335C13.7755 18.3334 14.1994 18.1578 14.512 17.8453C14.8246 17.5327 15.0002 17.1088 15.0002 16.6667V8.33342H16.7918C16.9901 8.33399 17.1822 8.26381 17.3334 8.13551C17.4846 8.0072 17.5851 7.82918 17.6168 7.63341L18.1002 4.74175C18.1663 4.34972 18.09 3.94697 17.8853 3.6062C17.6805 3.26543 17.3607 3.00908 16.9835 2.88341V2.88341Z" stroke="white" stroke-width="2" stroke-linecap="round" stroke-linejoin="round"/>
</svg>
