<svg width="40" height="40" viewBox="0 0 40 40" fill="none" xmlns="http://www.w3.org/2000/svg">
<path d="M11.6663 36.6665H6.66634C5.78229 36.6665 4.93444 36.3153 4.30932 35.6901C3.6842 35.065 3.33301 34.2172 3.33301 33.3331V21.6665C3.33301 20.7824 3.6842 19.9346 4.30932 19.3094C4.93444 18.6843 5.78229 18.3331 6.66634 18.3331H11.6663M23.333 14.9998V8.33313C23.333 7.00705 22.8062 5.73528 21.8685 4.7976C20.9309 3.85991 19.6591 3.33313 18.333 3.33313L11.6663 18.3331V36.6665H30.4663C31.2702 36.6755 32.0503 36.3938 32.6628 35.8731C33.2754 35.3525 33.6791 34.628 33.7997 33.8331L36.0997 18.8331C36.1722 18.3554 36.14 17.8676 36.0052 17.4035C35.8705 16.9395 35.6365 16.5103 35.3194 16.1457C35.0024 15.781 34.6098 15.4897 34.169 15.2918C33.7281 15.094 33.2495 14.9943 32.7663 14.9998H23.333Z" stroke="white" stroke-width="3" stroke-linejoin="round"/>
</svg>
