<svg width="240" height="60" viewBox="0 0 240 60" fill="none" xmlns="http://www.w3.org/2000/svg">
<path d="M94.8 11.676H66.18L68.256 6H96.84L94.8 11.676ZM93.78 14.496H65.16L63.096 20.16H91.68L93.78 14.496V14.496ZM90.684 22.956H62.076L60 28.62H88.56L90.684 22.956V22.956Z" fill="#009FDF"/>
<path d="M162.876 42.7805H168C168.732 42.8726 169.476 42.7804 170.164 42.5121C170.85 42.2439 171.46 41.8082 171.936 41.2444C172.651 40.3215 173.005 39.1697 172.932 38.0045C172.975 37.2625 172.836 36.5211 172.526 35.8454C172.217 35.1697 171.746 34.5803 171.156 34.1285C170.197 33.5039 169.057 33.2167 167.916 33.3125H162.816V42.7684L162.876 42.7805ZM156.12 48.4805V14.4965H178.236L176.28 20.1965H162.876V27.7205H168.336C172.752 27.7205 175.032 28.7765 176.616 30.1205C177.748 31.1273 178.637 32.3762 179.219 33.7745C179.801 35.1728 180.06 36.6843 179.976 38.1965C180.059 39.8181 179.737 41.4349 179.039 42.9013C178.342 44.3676 177.29 45.6374 175.98 46.5965C173.844 48.0725 171.624 48.4925 167.1 48.4925L156.12 48.4805ZM136.524 48.4805V20.1965H126.684V14.4965H153.984L152.028 20.1965H143.328V48.5164H136.512L136.524 48.4805ZM109.284 28.0805H113.16C113.965 28.1475 114.775 28.0868 115.56 27.9005C116.365 27.6405 117.057 27.1161 117.526 26.4123C117.994 25.7085 118.211 24.867 118.14 24.0245C118.25 23.1873 118.048 22.3391 117.572 21.6416C117.096 20.9443 116.38 20.4469 115.56 20.2445C114.715 20.0444 113.847 19.9637 112.98 20.0045H109.38V28.0805H109.284ZM109.284 33.9605V42.8764H114C115.283 43.0166 116.571 42.6602 117.6 41.8805C118.083 41.4431 118.464 40.9043 118.715 40.3027C118.966 39.7011 119.081 39.0516 119.052 38.4005C119.077 37.3565 118.761 36.3326 118.152 35.4845C117.156 34.1885 115.896 33.9485 113.796 33.9485H109.296L109.284 33.9605ZM120.18 30.3604V30.4804C121.338 30.9504 122.414 31.5982 123.372 32.4004C124.344 33.2046 125.111 34.2272 125.611 35.3847C126.112 36.5423 126.331 37.8019 126.252 39.0604C126.252 43.7164 123.792 47.0765 119.736 48.0604C118.116 48.4608 116.447 48.6224 114.78 48.5405H102.54V14.4965H113.436C115.17 14.4314 116.904 14.5927 118.596 14.9765C122.532 16.0325 125.112 18.7565 125.112 23.0525C125.146 24.0709 124.97 25.0855 124.6 26.0346C124.228 26.9835 123.667 27.8469 122.952 28.5724C122.19 29.3462 121.28 29.9584 120.276 30.3724H120.18V30.3604Z" fill="#0A2973"/>
</svg>
