<svg width="60" height="72" viewBox="0 0 60 72" fill="none" xmlns="http://www.w3.org/2000/svg">
<path d="M28.5198 38.5656V9.41294L22.7713 5.10156L13.1904 12.2872V43.2551C16.857 41.9081 20.9775 40.7296 25.0617 39.5614C26.221 39.2299 27.3774 38.8991 28.5198 38.5656Z" fill="white"/>
<path d="M28.0411 38.7054V9.05401L27.083 8.33545V38.9824C27.4032 38.8902 27.7226 38.7979 28.0411 38.7054Z" fill="#002040"/>
<path d="M26.6036 39.1199V7.97589L25.6455 7.25732V39.3945C25.9653 39.303 26.2847 39.2115 26.6036 39.1199Z" fill="#002040"/>
<path d="M25.1671 39.5318V6.89825L24.209 6.17969V39.8059C24.4935 39.7245 24.778 39.6431 25.0624 39.5617C25.0972 39.5518 25.1321 39.5418 25.1671 39.5318Z" fill="#002040"/>
<path d="M23.7296 39.943V5.82013L22.7715 5.10156V40.2185C23.0906 40.1264 23.41 40.0346 23.7296 39.943Z" fill="#002040"/>
<path d="M37.143 35.7704V27.1379L32.8317 24.7427L25.167 28.096V39.5319C29.3816 38.3264 33.5532 37.1306 37.143 35.7704Z" fill="white"/>
<path d="M36.6641 35.9496V26.8716L35.7061 26.3394V36.2959C36.0294 36.1816 36.3488 36.0662 36.6641 35.9496Z" fill="#002040"/>
<path d="M35.2266 36.4637V26.0733L34.2686 25.541V36.7895C34.5911 36.6818 34.9106 36.5732 35.2266 36.4637Z" fill="#002040"/>
<path d="M33.7891 36.9483V25.2749L32.8311 24.7427V37.2582C33.153 37.1556 33.4724 37.0523 33.7891 36.9483Z" fill="#002040"/>
<path d="M19.4182 41.2054V24.2634L13.6697 20.9102L4.08887 26.1796V47.9229C7.58108 45.1099 13.2765 43.0598 19.4182 41.2054Z" fill="white"/>
<path d="M18.9395 41.3509V23.9842L17.9814 23.4253V41.6461C18.2992 41.5471 18.6187 41.4487 18.9395 41.3509Z" fill="#002040"/>
<path d="M14.628 42.7433C14.3057 42.8548 13.9862 42.9674 13.6699 43.0812V20.9102L14.628 21.4691V42.7433Z" fill="#002040"/>
<path d="M16.0655 42.2589C15.7437 42.3647 15.4243 42.4714 15.1074 42.5791V21.7485L16.0655 22.3074V42.2589Z" fill="#002040"/>
<path d="M17.502 41.7963C17.1808 41.8976 16.8613 41.9996 16.5439 42.1025V22.5869L17.502 23.1458V41.7963Z" fill="#002040"/>
<path d="M18.9121 49.3572C18.9213 49.3544 18.9305 49.351 18.9397 49.3477V49.3735L18.9121 49.3572Z" fill="white"/>
<path d="M54.1484 29.7726C52.9148 47.4971 1.21438 46.06 4.08858 62.3474C-14.3545 39.1139 45.1946 41.9881 47.6813 27.3774C49.5975 16.1199 22.5317 0.790527 22.5317 0.790527C22.5317 0.790527 55.1654 15.1618 54.1484 29.7726Z" fill="white"/>
<path d="M59.1786 33.8441C57.3132 53.4326 3.84945 54.2034 12.7117 71.2094C-10.2824 49.892 52.8016 50.8501 56.3043 32.1675C57.9211 23.5447 50.0768 17.0776 50.0768 17.0776C50.0768 17.0776 60.1367 23.7842 59.1786 33.8441Z" fill="white"/>
</svg>
