<svg width="52" height="62" viewBox="0 0 52 62" fill="none" xmlns="http://www.w3.org/2000/svg">
<path d="M24.6646 33.2451V7.73653L19.6347 3.96407L11.2515 10.2515V37.3485C14.4597 36.1698 18.0651 35.1386 21.6388 34.1165C22.6532 33.8264 23.6651 33.5369 24.6646 33.2451Z" fill="#002040"/>
<path d="M24.2455 33.3671V7.42215L23.4072 6.79341V33.6095C23.6874 33.5288 23.9668 33.4481 24.2455 33.3671Z" fill="white"/>
<path d="M22.9877 33.7301V6.47905L22.1494 5.8503V33.9704C22.4292 33.8903 22.7087 33.8102 22.9877 33.7301Z" fill="white"/>
<path d="M21.7304 34.0903V5.53592L20.8921 4.90718V34.3301C21.141 34.2589 21.39 34.1876 21.6388 34.1165C21.6693 34.1077 21.6999 34.099 21.7304 34.0903Z" fill="white"/>
<path d="M20.4731 34.4503V4.59282L19.6348 3.96407V34.6914C19.914 34.6108 20.1935 34.5305 20.4731 34.4503Z" fill="white"/>
<path d="M32.2095 30.7989V23.2455L28.4371 21.1497L21.7305 24.0838V34.0903C25.4183 33.0355 29.0684 31.9891 32.2095 30.7989Z" fill="#002040"/>
<path d="M31.7905 30.9558V23.0126L30.9521 22.5469V31.2589C31.235 31.1588 31.5146 31.0578 31.7905 30.9558Z" fill="white"/>
<path d="M30.5327 31.4056V22.3141L29.6943 21.8483V31.6908C29.9766 31.5965 30.2561 31.5015 30.5327 31.4056Z" fill="white"/>
<path d="M29.2753 31.8296V21.6154L28.437 21.1497V32.1008C28.7187 32.011 28.9982 31.9207 29.2753 31.8296Z" fill="white"/>
<path d="M16.7003 35.5548V20.7305L11.6703 17.7964L3.28711 22.4072V41.4325C6.3428 38.9712 11.3263 37.1773 16.7003 35.5548Z" fill="#002040"/>
<path d="M16.2812 35.6819V20.486L15.4429 19.997V35.9402C15.7209 35.8536 16.0005 35.7675 16.2812 35.6819Z" fill="white"/>
<path d="M12.5087 36.9004C12.2267 36.998 11.9471 37.0965 11.6704 37.1961V17.7964L12.5087 18.2854V36.9004Z" fill="white"/>
<path d="M13.7661 36.4765C13.4845 36.5691 13.205 36.6625 12.9277 36.7567V18.5299L13.7661 19.019V36.4765Z" fill="white"/>
<path d="M15.0239 36.0716C14.7428 36.1603 14.4632 36.2496 14.1855 36.3396V19.2635L15.0239 19.7525V36.0716Z" fill="white"/>
<path d="M16.2573 42.6875C16.2653 42.685 16.2734 42.682 16.2814 42.6791V42.7017L16.2573 42.6875Z" fill="white"/>
<path d="M47.0893 25.5509C46.01 41.0599 0.772054 39.8024 3.28698 54.0539C-12.8507 33.7246 39.2547 36.2395 41.4306 23.4551C43.1073 13.6048 19.4247 0.19162 19.4247 0.19162C19.4247 0.19162 47.9792 12.7665 47.0893 25.5509Z" fill="url(#paint0_linear_0_1)"/>
<path d="M51.4909 29.1138C49.8586 46.2537 3.07786 46.9281 10.8323 61.8084C-9.28749 43.1557 45.911 43.994 48.9759 27.6467C50.3906 20.1018 43.5268 14.4431 43.5268 14.4431C43.5268 14.4431 52.3292 20.3114 51.4909 29.1138Z" fill="url(#paint1_linear_0_1)"/>
<defs>
<linearGradient id="paint0_linear_0_1" x1="23.6506" y1="0.19162" x2="23.6506" y2="54.0539" gradientUnits="userSpaceOnUse">
<stop stop-color="#409FFF"/>
<stop offset="1" stop-color="#007FFF"/>
</linearGradient>
<linearGradient id="paint1_linear_0_1" x1="28.9887" y1="14.4431" x2="28.9887" y2="61.8084" gradientUnits="userSpaceOnUse">
<stop stop-color="#409FFF"/>
<stop offset="1" stop-color="#007FFF"/>
</linearGradient>
</defs>
</svg>
